<svg version="1.1" id="Layer_1" xmlns="http://www.w3.org/2000/svg" xmlns:xlink="http://www.w3.org/1999/xlink" x="0px" y="0px"
	 width="100%" viewBox="0 0 400 400" enable-background="new 0 0 400 400" xml:space="preserve">
<path fill="#000000" opacity="1.000000" stroke="none" 
	d="
M213.319656,81.327103 
	C214.555099,75.970139 211.250000,74.687164 207.487015,74.467384 
	C201.841812,74.137657 196.168564,74.284424 190.507187,74.236725 
	C188.600510,74.220657 186.640961,74.643364 184.149719,73.506691 
	C190.576340,71.315880 196.548782,71.460442 202.453171,71.831367 
	C217.918106,72.802910 233.201843,75.060196 248.116699,79.381226 
	C269.754150,85.649879 283.869843,100.468384 293.773590,119.950638 
	C295.726074,123.791451 294.526459,127.845772 293.713501,131.698654 
	C291.490021,142.236603 285.382629,150.836746 279.366882,159.454895 
	C275.553864,164.917358 271.767151,170.398178 267.947662,175.856049 
	C262.219055,184.041962 258.880005,193.063095 257.152985,202.947296 
	C255.837036,210.478745 255.378754,218.713608 248.250290,223.950562 
	C247.794617,224.285324 247.634583,225.104187 247.463791,225.732330 
	C245.804718,231.833755 245.855118,231.763397 240.184738,228.421219 
	C225.801910,219.943848 210.729340,213.679688 193.583679,214.216858 
	C192.108963,214.263062 190.626038,214.046844 189.150421,213.662766 
	C195.690170,211.464584 202.360931,213.008636 208.946533,213.165390 
	C212.834488,213.257935 215.741287,212.749481 217.432251,208.778107 
	C219.042572,204.996155 222.857590,203.822586 226.337860,202.956070 
	C231.275986,201.726547 234.661163,198.498718 237.225952,194.721832 
	C241.818695,187.958633 244.772400,180.257446 247.586121,172.616608 
	C248.710815,169.562408 249.237228,166.200638 250.176544,163.004669 
	C251.765076,157.599823 250.038391,152.743454 246.803345,148.495926 
	C243.714294,144.440094 239.044128,141.748199 237.165085,136.551025 
	C233.296005,138.400421 233.728653,141.615372 233.436386,144.173920 
	C232.511017,152.274643 231.916122,160.413712 231.234146,168.541351 
	C230.988708,171.466446 230.745636,174.376495 229.364334,177.081100 
	C228.063126,165.930130 229.223450,154.890320 230.151230,143.815613 
	C231.045349,133.142609 234.156021,122.933449 236.136032,112.493019 
	C237.222214,106.765808 235.343552,102.300911 231.763153,98.335899 
	C228.418488,94.631927 224.831085,91.126266 221.145538,87.757576 
	C218.212601,85.076790 216.241058,85.698318 214.939270,89.469666 
	C211.486710,99.471741 210.318008,109.959862 209.522018,120.364807 
	C208.189667,137.781067 206.424545,155.215149 207.322510,172.736237 
	C207.516037,176.512177 207.874054,180.279663 207.977783,184.060593 
	C202.444626,164.582687 195.460587,112.338455 213.319656,81.327103 
z"/>
<path fill="#000000" opacity="1.000000" stroke="none" 
	d="
M150.818542,304.741699 
	C150.305115,300.990692 148.516037,297.596619 150.951965,294.358551 
	C151.390503,294.285889 151.829361,294.072723 151.999710,294.205109 
	C160.660889,300.934967 169.170670,299.527039 177.843857,294.071869 
	C181.882477,291.531708 186.499084,290.656799 191.277359,291.670258 
	C197.639038,293.019531 200.598267,298.263123 198.582840,304.449249 
	C198.428345,304.923401 198.348404,305.435883 198.118500,305.869385 
	C192.739029,316.013245 183.268829,318.682404 172.939011,318.915985 
	C161.921265,319.165100 154.292328,314.031921 150.818542,304.741699 
z"/>
<path fill="#000000" opacity="1.000000" stroke="none" 
	d="
M247.418137,312.395721 
	C236.433350,321.559845 218.607224,321.075623 208.559738,311.566071 
	C207.479462,310.543671 206.473343,309.391724 205.655533,308.152863 
	C203.244614,304.500580 201.889297,300.537537 204.272156,296.432434 
	C206.971634,291.781860 211.661438,291.101990 216.477463,291.312805 
	C220.052643,291.469299 223.281540,293.044586 226.244400,294.879181 
	C234.072510,299.726227 241.732208,300.663666 249.416367,294.665070 
	C249.884155,294.299896 250.608353,294.263214 251.689133,293.924622 
	C253.221283,300.860687 252.348663,306.880219 247.418137,312.395721 
z"/>
<path fill="#000000" opacity="1.000000" stroke="none" 
	d="
M121.800392,108.856369 
	C122.344696,101.011833 129.285583,92.389824 137.838074,90.050903 
	C131.597687,94.685570 135.162216,102.001663 131.050980,106.704865 
	C130.541626,107.287552 131.112946,108.272537 131.668198,108.962387 
	C136.507919,114.975174 137.007812,122.400223 138.438629,129.551453 
	C141.928879,146.995697 143.852112,164.730560 148.268356,182.003860 
	C150.359512,190.183044 153.866318,197.607986 159.782578,204.418945 
	C155.160812,207.950836 156.457870,212.980469 156.294342,217.717590 
	C156.161362,221.569550 157.684464,222.517181 161.158112,220.942154 
	C167.367111,218.126846 173.516983,215.109909 180.390427,214.172897 
	C181.806778,213.979828 183.233490,213.419266 186.162766,214.583069 
	C174.762177,217.168869 165.125885,220.774734 156.313049,225.308640 
	C154.532990,223.921188 154.633057,222.665543 154.748245,221.567245 
	C155.104218,218.172821 153.871094,215.825867 151.424301,213.281097 
	C144.749069,206.338593 142.668457,197.017731 139.602325,188.228104 
	C135.925766,177.688522 134.034088,166.669510 130.731506,156.033951 
	C130.559723,155.480728 130.156372,154.776840 131.533554,153.921494 
	C138.543060,173.250595 140.995193,194.267365 153.103485,212.420746 
	C156.498077,207.754807 156.794891,204.738220 153.966064,200.699661 
	C146.092041,189.458328 142.701889,176.326614 139.682068,163.161316 
	C137.192322,152.306946 135.030884,141.377640 132.611649,130.506546 
	C130.897568,122.804192 128.317871,115.464340 122.373108,109.295059 
	C122.015129,109.022545 121.800392,108.856369 121.800392,108.856369 
z"/>
<path fill="#000000" opacity="1.000000" stroke="none" 
	d="
M171.451614,121.385696 
	C170.219681,109.950699 170.111008,98.988358 173.023758,88.249435 
	C174.538300,82.665421 177.025543,77.585487 183.580307,76.215881 
	C185.224884,75.872253 186.753174,75.585541 188.626968,77.468040 
	C179.373398,78.896339 178.843262,86.341232 177.248871,92.692505 
	C175.328323,100.343018 174.675415,108.087715 179.067047,115.370529 
	C180.114578,117.107674 180.357849,119.289490 179.897751,121.212738 
	C177.642654,130.639175 180.760071,139.741165 181.690857,148.912521 
	C182.893784,160.765091 185.425507,172.480637 187.280991,184.271545 
	C187.549255,185.976166 189.160614,187.558578 187.966476,189.433884 
	C186.884094,189.763306 186.324326,189.214722 186.035812,188.362106 
	C178.715836,166.729660 173.748535,144.582352 171.451614,121.385696 
z"/>
<path fill="#000000" opacity="1.000000" stroke="none" 
	d="
M144.550598,247.029663 
	C143.505783,252.544495 138.729584,253.318298 135.027527,255.158630 
	C131.186752,257.067871 126.959587,258.236298 123.971489,262.087799 
	C127.060364,265.697754 131.665070,266.477783 135.510498,268.513641 
	C138.440765,270.064972 141.555267,271.268768 144.590256,272.621704 
	C147.070404,273.727295 149.207932,275.244324 147.745621,278.286499 
	C146.300034,281.293823 143.203384,283.238586 140.381454,281.489868 
	C131.432907,275.944580 121.821930,271.842377 112.336349,267.436920 
	C109.730263,266.226562 109.337341,264.160858 110.251869,261.602661 
	C111.331444,258.582733 113.607674,256.810242 116.251373,255.228714 
	C122.813477,251.303116 130.100052,248.797531 136.523193,244.551041 
	C139.412308,242.640991 142.602051,243.083649 144.550598,247.029663 
z"/>
<path fill="#000000" opacity="1.000000" stroke="none" 
	d="
M151.505219,129.427521 
	C150.290115,122.108345 149.841263,115.133614 147.832367,108.391151 
	C146.576035,104.174614 144.542023,100.428543 142.379120,96.673035 
	C140.141342,92.787544 141.502777,88.146179 145.710831,86.620285 
	C151.123093,84.657722 156.754883,83.300568 163.343170,81.375511 
	C158.949432,85.722557 153.701904,85.697342 149.354187,87.679184 
	C149.903946,89.969040 153.146606,89.583961 153.104156,92.124077 
	C151.764679,93.907448 149.316101,92.926804 147.629623,94.260979 
	C146.700470,97.234375 147.648773,99.944740 149.053146,102.686066 
	C155.391632,115.058678 157.744659,128.360596 158.361404,142.122925 
	C158.777664,151.411850 158.869843,160.742096 160.434860,169.948700 
	C161.987396,179.081818 165.127762,187.544525 171.466919,194.684845 
	C170.217850,195.909836 169.384140,197.546967 167.920700,195.272552 
	C159.756714,182.584579 155.392746,168.569550 153.766113,153.689545 
	C152.900375,145.770126 151.522934,137.887817 151.505219,129.427521 
z"/>
<path fill="#000000" opacity="1.000000" stroke="none" 
	d="
M262.723999,276.840942 
	C259.765167,278.564240 256.576843,281.613464 254.254211,277.798584 
	C252.095718,274.253265 255.852921,272.344604 258.442169,270.521210 
	C263.319000,267.086823 268.154663,263.593994 273.211029,259.979919 
	C271.527405,256.564514 268.569611,255.505310 265.595367,254.566223 
	C262.107117,253.464813 258.492798,252.720184 255.267807,250.901978 
	C253.618378,249.972061 252.080078,248.797501 252.583878,246.598236 
	C253.119080,244.261902 255.000168,243.572220 257.146576,243.497757 
	C258.137177,243.463409 259.231079,243.373215 260.113281,243.723526 
	C267.521515,246.665314 275.279388,248.911499 281.572632,254.147247 
	C285.497406,257.412537 285.497620,259.959534 281.490723,262.958038 
	C275.357910,267.547455 269.181641,272.078827 262.723999,276.840942 
z"/>
<path fill="#000000" opacity="1.000000" stroke="none" 
	d="
M218.756424,271.500427 
	C216.055954,268.932739 214.944687,266.059479 214.706421,262.803223 
	C214.227936,256.263153 217.279022,252.607941 223.594299,252.140289 
	C229.425507,251.708481 232.803421,255.014801 233.222626,261.564545 
	C233.831772,271.081909 227.277786,275.804047 218.756424,271.500427 
z"/>
<path fill="#000000" opacity="1.000000" stroke="none" 
	d="
M174.007477,272.584167 
	C170.471146,270.081146 168.980179,266.877289 168.701080,263.054077 
	C168.214859,256.393463 171.026642,252.904480 177.028381,252.666214 
	C183.853897,252.395233 186.723175,255.097748 186.963257,262.023621 
	C187.270874,270.897522 183.146194,274.422913 174.007477,272.584167 
z"/>
<path fill="#000000" opacity="1.000000" stroke="none" 
	d="
M178.982727,244.075363 
	C173.725342,245.889313 168.787292,248.277176 164.384232,243.262039 
	C163.336456,242.068604 161.673248,240.809479 163.214493,239.016129 
	C164.787888,237.185364 166.107437,238.356293 167.292358,239.729767 
	C169.073502,241.794250 171.219940,241.851562 173.636887,240.970047 
	C175.973953,240.117676 178.355240,239.359879 180.761734,238.731400 
	C183.648468,237.977463 186.461365,238.248734 188.635223,240.500916 
	C189.806686,241.714600 191.831985,243.088928 190.144241,245.082367 
	C188.535919,246.982010 187.240005,245.170380 185.980576,244.181519 
	C183.838303,242.499405 181.604050,243.120697 178.982727,244.075363 
z"/>
<path fill="#000000" opacity="1.000000" stroke="none" 
	d="
M212.369278,282.339539 
	C210.717987,287.263123 207.689987,290.450684 202.539322,290.181061 
	C197.491135,289.916809 195.561890,285.978912 193.762848,281.982056 
	C195.408447,280.889618 195.982956,281.939423 196.645554,282.552429 
	C201.324753,286.881714 204.677521,286.926208 209.647583,282.757172 
	C210.383957,282.139465 210.937790,280.426605 212.369278,282.339539 
z"/>
<path fill="#000000" opacity="1.000000" stroke="none" 
	d="
M122.122726,109.105331 
	C121.801071,115.558502 119.923470,121.874886 121.745781,128.339417 
	C119.308159,122.068298 119.052879,115.800873 121.586349,109.185020 
	C121.800392,108.856369 122.015129,109.022545 122.122726,109.105331 
z"/>
</svg>