<?xml version="1.0" standalone="no"?>
<!DOCTYPE svg PUBLIC "-//W3C//DTD SVG 20010904//EN"
 "http://www.w3.org/TR/2001/REC-SVG-20010904/DTD/svg10.dtd">
<svg version="1.0" xmlns="http://www.w3.org/2000/svg"
 width="800.000000pt" height="337.000000pt" viewBox="0 0 800.000000 337.000000"
 preserveAspectRatio="xMidYMid meet">

<g transform="translate(0.000000,337.000000) scale(0.100000,-0.100000)"
fill="#000000" stroke="none">
<path d="M3800 2856 c-3 -2 -28 -8 -55 -11 -63 -9 -72 -16 -90 -77 -12 -41
-14 -177 -15 -831 -1 -728 3 -873 25 -896 14 -13 89 -32 176 -43 75 -9 120 -9
205 0 159 18 177 21 185 29 15 17 21 133 25 539 4 370 3 424 -11 437 -10 11
-11 17 -3 19 18 6 17 637 -1 733 -7 38 -15 72 -17 74 -16 16 -411 41 -424 27z
m108 -787 c-2 -6 -8 -10 -13 -10 -5 0 -11 4 -13 10 -2 6 4 11 13 11 9 0 15 -5
13 -11z m130 -1 c-7 -19 -38 -22 -38 -4 0 10 9 16 21 16 12 0 19 -5 17 -12z
m67 -8 c3 -5 19 -10 36 -10 16 0 29 -4 29 -8 0 -5 -25 -4 -55 1 -30 6 -52 14
-49 19 7 11 31 10 39 -2z m-313 -31 c-36 -17 -78 -50 -102 -76 -45 -52 -53
-48 -14 9 26 36 88 81 129 91 48 12 44 5 -13 -24z m408 1 c0 -5 -4 -10 -10
-10 -5 0 -10 5 -10 10 0 6 5 10 10 10 6 0 10 -4 10 -10z m17 -12 c-3 -8 -6 -5
-6 6 -1 11 2 17 5 13 3 -3 4 -12 1 -19z"/>
<path d="M4634 2103 l-61 -4 -14 -57 c-11 -44 -14 -154 -14 -497 0 -503 1
-508 66 -525 21 -5 58 -15 82 -21 64 -18 298 -12 391 8 73 17 80 20 90 48 12
36 15 873 3 956 -14 97 -2 92 -258 95 -123 1 -251 0 -285 -3z"/>
<path d="M2537 826 c-70 -26 -107 -77 -110 -150 -4 -96 60 -164 164 -173 49
-5 66 -1 118 23 34 16 61 31 61 35 0 3 -6 14 -14 25 -14 19 -15 19 -44 -3 -34
-25 -91 -38 -127 -29 -13 3 -40 20 -60 37 -30 26 -35 38 -35 73 0 23 7 52 16
65 20 28 72 51 114 51 34 0 101 -25 111 -42 4 -6 14 0 24 16 10 15 16 28 14
29 -73 48 -171 66 -232 43z"/>
<path d="M2882 750 c-50 -36 -69 -88 -52 -149 25 -95 154 -132 241 -70 35 25
49 55 49 109 0 56 -13 83 -57 113 -56 39 -125 38 -181 -3z m153 -42 c15 -14
28 -38 31 -59 5 -28 1 -41 -21 -67 -23 -28 -33 -32 -74 -32 -41 0 -50 4 -69
30 -68 91 47 202 133 128z"/>
<path d="M3185 772 c-3 -3 -5 -63 -5 -134 l0 -128 105 0 c102 0 106 1 137 29
31 28 33 33 33 99 0 82 -19 111 -85 131 -39 11 -174 14 -185 3z m196 -67 c14
-13 19 -31 19 -66 0 -41 -4 -50 -29 -68 -36 -26 -116 -29 -125 -5 -10 27 -7
139 5 151 17 17 107 8 130 -12z"/>
<path d="M3525 645 l0 -135 128 0 c120 0 127 1 127 20 0 18 -8 20 -97 22 l-98
3 -3 33 -3 32 65 0 c64 0 66 1 66 25 0 24 -2 25 -66 25 l-65 0 3 28 3 27 90 0
c89 0 90 0 90 25 l0 25 -120 3 -120 3 0 -136z"/>
<path d="M4210 773 c-40 -8 -87 -50 -100 -89 -17 -50 -4 -100 35 -141 86 -89
255 -27 255 94 0 93 -89 156 -190 136z m115 -75 c32 -38 32 -78 0 -116 -48
-57 -129 -50 -160 14 -50 105 85 191 160 102z"/>
<path d="M4880 773 c-30 -6 -71 -37 -87 -66 -15 -26 -17 -96 -4 -129 26 -67
132 -95 219 -58 29 12 52 26 52 30 0 14 -28 31 -34 21 -11 -17 -100 -33 -129
-22 -44 17 -67 47 -67 89 0 40 11 60 48 84 29 19 99 13 134 -12 23 -17 28 -17
39 -4 14 17 15 16 -34 43 -40 22 -97 32 -137 24z"/>
<path d="M5480 767 c-44 -15 -68 -55 -55 -93 6 -15 17 -30 25 -34 8 -4 25 -12
37 -18 13 -7 42 -12 65 -12 24 0 49 -4 57 -9 20 -13 6 -39 -26 -52 -30 -11
-119 -3 -129 12 -8 14 -21 11 -28 -7 -4 -10 1 -22 11 -30 23 -16 112 -28 151
-19 41 8 82 48 82 78 0 47 -29 67 -114 82 -94 16 -111 28 -78 55 17 14 34 17
75 14 28 -3 62 -11 74 -19 19 -13 22 -12 28 3 7 20 -15 38 -65 52 -44 12 -66
12 -110 -3z"/>
<path d="M3825 640 l0 -130 28 0 c26 0 27 2 27 55 0 50 2 55 26 61 14 4 41 4
60 1 29 -5 34 -3 34 14 0 17 -7 19 -60 19 l-60 0 0 35 0 35 90 0 c83 0 90 1
90 20 0 19 -7 20 -117 20 l-118 0 0 -130z"/>
<path d="M4463 640 l1 -130 29 0 c29 0 30 1 25 44 -3 24 -1 51 4 60 9 16 45
21 63 8 16 -11 65 -87 65 -100 0 -7 16 -12 41 -12 l41 0 -34 43 c-51 63 -52
66 -23 79 33 15 55 56 45 84 -16 41 -52 54 -158 54 l-99 0 0 -130z m196 72
c17 -32 -10 -52 -72 -52 -60 0 -79 14 -70 51 7 27 127 28 142 1z"/>
<path d="M5130 640 l0 -130 125 0 c118 0 125 1 125 20 0 18 -8 20 -97 22 l-98
3 -3 29 c-5 37 10 46 76 46 39 0 52 4 52 15 0 10 -16 15 -62 17 -63 3 -63 3
-63 33 l0 30 93 3 c84 2 92 4 92 22 0 19 -7 20 -120 20 l-120 0 0 -130z"/>
</g>
</svg>
